<svg xmlns="http://www.w3.org/2000/svg" width="142" height="142" viewBox="0 0 142 142">
  <g id="グループ_4" data-name="グループ 4" transform="translate(-213 -410)">
    <circle id="楕円形_3" data-name="楕円形 3" cx="71" cy="71" r="71" transform="translate(213 410)" fill="#e9e4d3"/>
    <path id="パス_12" data-name="パス 12" d="M306.938,459.669v11.546H260.785V459.669H250.725l-3.5,4.636h8.268v13.913H312.14V464.3h8.549l-3.54-4.636Z" fill="#440507" stroke="#707070" stroke-width="1"/>
    <path id="パス_13" data-name="パス 13" d="M277.614,478.218V505.57s.415,6.237-14.143,6.626l-4.786,1.759V524.5s5.127,7.115,10.42,0v-6.215h8.509s.271,2.531,6.14,2.378,5.957-2.378,5.957-2.378h9.053v4.985s3.03,5.98,6.057,5.98,5.016-4.751,5.016-4.751v-9.149a41.151,41.151,0,0,1-5.016-3.152c-11.8-.479-15.109-6.626-15.109-6.626V478.218Z" fill="#440507"/>
    <path id="パス_9" data-name="パス 9" d="M283.148,435.522s-18.842.346-21.146,8.869,4.736,5.908,4.874,22.161c-.534,15.884,1.814,13.21,1.814,13.21a53.33,53.33,0,0,0,14.457,1.311c6.606-.193,13.8-.251,16.354-1.784,3.02-1.793-.135-6.11,1.262-14.563,2.372-14.352,5.614-11.006,4.482-20.334S283.148,435.522,283.148,435.522Z" fill="#80070a"/>
    <path id="パス_11" data-name="パス 11" d="M258.209,498.816s7.009,3.239,25.825,3.239,25.3-3.239,25.3-3.239v-6.652s-2.3,5.173-25.3,5.381-25.825-5.381-25.825-5.381Z" fill="#5b0609"/>
    <path id="パス_10" data-name="パス 10" d="M261.54,484.239h45.444l2.529,7.275s.352,5.636-24.98,5.867-26.324-5.867-26.324-5.867Z" fill="#80070a"/>
  </g>
</svg>
