<svg xmlns="http://www.w3.org/2000/svg" width="122" height="122" viewBox="0 0 122 122">
  <g id="グループ_1" data-name="グループ 1" transform="translate(-107 -245)">
    <circle id="楕円形_1" data-name="楕円形 1" cx="61" cy="61" r="61" transform="translate(107 245)" fill="#e9e4d3"/>
    <path id="パス_1" data-name="パス 1" d="M251.9,267.348c-2-1.1-.8,2.514-.8,2.514v3.331h-.929v1.087l-2.995-1.087V276.7h-.9l-1.1,1.152-1.956.7-15.952,15.341v6.76l3.264,2.809h7.118l3.688-3.531h3.84l1.1.723H251.1l.8.8v.906l-9.475,11.02a40.629,40.629,0,0,0-3.092,7.158,43.222,43.222,0,0,0-.874,8.681l-5.161,5.6v8.99H274.52v-8.99l-4.246-4.859h-1.1v-4.515l6.4-20.692V293.891s-2.758-10.057-6.4-13.5a29.878,29.878,0,0,0-10.082-6.112C257.855,274.025,253.9,268.453,251.9,267.348Z" transform="translate(-83 1)" fill="#80070a"/>
    <path id="パス_2" data-name="パス 2" d="M260.2,275.4c.979,1.784,6.911,8.662,7.112,11.378s0,14.467,0,14.467l-10.066,29.1h12.123v-4.909l6.267-20.424V293.238s.358-4.609-4.593-10.538S259.223,273.617,260.2,275.4Z" transform="translate(-83 1)" fill="#5f0608"/>
    <path id="パス_3" data-name="パス 3" d="M237.7,330.343h31.841l4.44,4.216v6.022H232.936V334.56Z" transform="translate(-82.545 1)" fill="#ba8847"/>
    <rect id="長方形_1" data-name="長方形 1" width="40" height="5" transform="translate(151 340)" fill="#84582a"/>
    <path id="パス_4" data-name="パス 4" d="M174.249,331.343v9.082H191.3V335.95l-3.78-4.607Z" fill="#a1763d"/>
  </g>
</svg>
