<svg xmlns="http://www.w3.org/2000/svg" viewBox="0 0 22.242 22.243"><g data-name="アートワーク 2"><g data-name="グループ化 4"><path data-name="パス 7" d="M21.007 0H1.236A1.236 1.236 0 0 0 0 1.236v19.771a1.236 1.236 0 0 0 1.236 1.236h10.645v-8.6H8.993v-3.368h2.888V7.8c0-2.873 1.755-4.439 4.325-4.439a23.929 23.929 0 0 1 2.589.133v2.99h-1.773c-1.393 0-1.665.664-1.665 1.637v2.144h3.333l-.432 3.367h-2.9v8.607h5.65a1.236 1.236 0 0 0 1.236-1.236V1.236A1.236 1.236 0 0 0 21.007 0z" fill="#4267b2"/><path d="M15.357 22.242v-8.6h2.9l.432-3.367h-3.332V8.131c0-.973.272-1.637 1.665-1.637h1.767V3.488a23.928 23.928 0 0 0-2.589-.133 4.051 4.051 0 0 0-4.325 4.439v2.474H8.993v3.367h2.89v8.607z" fill="#fff"/></g></g></svg>