<svg xmlns="http://www.w3.org/2000/svg" viewBox="0 0 22.09 22.091"><defs><style>.cls-2{fill:#fff}</style></defs><g id="アートワーク_1" data-name="アートワーク 1" transform="translate(11.045 11.045)"><g id="アートワーク_1-2" data-name="アートワーク 1" transform="translate(-11.045 -11.046)"><path id="パス_1232" data-name="パス 1232" d="M20.456 0H1.629A1.612 1.612 0 0 0 0 1.592V20.5a1.613 1.613 0 0 0 1.629 1.59h18.827a1.616 1.616 0 0 0 1.634-1.59V1.592A1.615 1.615 0 0 0 20.456 0z" transform="translate(0 .001)" fill="#006aa8"/><path id="パス_1233" data-name="パス 1233" class="cls-2" d="M18.083 23.228h3.28V33.77h-3.28zm1.64-5.241a1.9 1.9 0 1 1-1.9 1.9 1.9 1.9 0 0 1 1.9-1.9" transform="translate(-14.809 -14.946)"/><path id="_Path_" data-name="&lt;Path&gt;" class="cls-2" d="M50.919 47.7h3.141v1.441h.045a3.444 3.444 0 0 1 3.1-1.7c3.317 0 3.93 2.183 3.93 5.022v5.782H57.86v-5.128c0-1.222-.022-2.8-1.7-2.8-1.7 0-1.965 1.333-1.965 2.708v5.214h-3.276z" transform="translate(-42.311 -39.42)"/></g></g></svg>