<svg xmlns="http://www.w3.org/2000/svg" width="32" height="32" viewBox="0 0 32 32">
  <g id="グループ_1" data-name="グループ 1" transform="translate(-125 -921)">
    <circle id="楕円形_1" data-name="楕円形 1" cx="16" cy="16" r="16" transform="translate(125 921)" fill="#333"/>
    <path id="パス_2" data-name="パス 2" d="M141,940a2.987,2.987,0,0,0,2.99-3l.01-6a3,3,0,0,0-6,0v6A3,3,0,0,0,141,940Zm5.3-3a5.3,5.3,0,0,1-10.6,0H134a6.984,6.984,0,0,0,6,6.72V947h2v-3.28a6.968,6.968,0,0,0,6-6.72Z" fill="#fff"/>
  </g>
</svg>
