<svg xmlns="http://www.w3.org/2000/svg" width="13.996" height="14.003" viewBox="0 0 13.996 14.003">
  <path id="パス_1" data-name="パス 1" d="M13.807,12.868,9.853,8.912a5.7,5.7,0,0,0,.507-.765.254.254,0,0,0,.014-.027c.066-.12.129-.246.186-.372.025-.055.047-.115.068-.169.033-.082.068-.164.1-.249.022-.06.038-.123.058-.183.027-.085.055-.169.077-.257l.025-.112a5.48,5.48,0,0,0-.258-3.352.189.189,0,0,0-.008-.022q-.045-.11-.1-.216l-.014-.03c-.036-.074-.071-.148-.11-.219a.069.069,0,0,0-.011-.019A5.513,5.513,0,0,0,4.224.156L4.147.172C4.054.2,3.964.224,3.873.254q-.084.024-.167.052c-.09.033-.181.068-.268.107-.049.022-.1.038-.151.06a5.262,5.262,0,0,0-1.17.7,5.491,5.491,0,0,0-.94.93,5.561,5.561,0,0,0-.507.768.01.01,0,0,0,0,.008c-.07.128-.136.257-.2.391-.022.049-.041.1-.06.15C.378,3.51.34,3.6.307,3.688c-.019.055-.033.109-.049.164-.03.09-.058.183-.082.276l-.022.1A5.448,5.448,0,0,0,0,5.5a5.516,5.516,0,0,0,5.513,5.517,5.6,5.6,0,0,0,1.33-.161l.041-.008q.15-.041.3-.09l.137-.041c.093-.033.181-.068.271-.107.049-.022.1-.038.151-.06.1-.046.208-.1.31-.153.03-.016.063-.03.093-.046a5.668,5.668,0,0,0,.764-.5l3.956,3.959a.663.663,0,0,0,.936-.938ZM9.656,5.514A4.139,4.139,0,1,1,5.522,1.378,4.141,4.141,0,0,1,9.656,5.514Z" transform="translate(0 0)" fill="#f2dd9d"/>
</svg>
