<svg xmlns="http://www.w3.org/2000/svg" width="22.09" height="22.09" viewBox="0 0 22.09 22.09">
  <g id="アートワーク_1" data-name="アートワーク 1" transform="translate(11.045 11.045)">
    <g id="アートワーク_1-2" data-name="アートワーク 1" transform="translate(-11.045 -11.046)">
      <path id="パス_1232" data-name="パス 1232" d="M20.456,0H1.629A1.612,1.612,0,0,0,0,1.592V20.5a1.613,1.613,0,0,0,1.629,1.59H20.456A1.616,1.616,0,0,0,22.09,20.5V1.592A1.615,1.615,0,0,0,20.456,0Z" transform="translate(0 0.001)" fill="#006aa8"/>
      <path id="パス_1233" data-name="パス 1233" d="M18.083,23.228h3.28V33.77h-3.28Zm1.64-5.241a1.9,1.9,0,1,1-1.9,1.9,1.9,1.9,0,0,1,1.9-1.9" transform="translate(-14.809 -14.946)" fill="#fff"/>
      <path id="_Path_" data-name="&lt;Path&gt;" d="M50.919,47.7H54.06v1.441H54.1a3.444,3.444,0,0,1,3.1-1.7c3.317,0,3.93,2.183,3.93,5.022v5.782H57.86V53.117c0-1.222-.022-2.8-1.7-2.8-1.7,0-1.965,1.333-1.965,2.708v5.214H50.919Z" transform="translate(-42.311 -39.42)" fill="#fff"/>
    </g>
  </g>
</svg>
