<svg id="アートワーク_2" data-name="アートワーク 2" xmlns="http://www.w3.org/2000/svg" width="22.244" height="22.243" viewBox="0 0 22.244 22.243">
  <g id="グループ化_4" data-name="グループ化 4">
    <path id="パス_7" data-name="パス 7" d="M21.007,0H1.236A1.236,1.236,0,0,0,0,1.236V21.007a1.236,1.236,0,0,0,1.236,1.236H11.881v-8.6H8.993V10.275h2.888V7.8c0-2.873,1.755-4.439,4.325-4.439a23.93,23.93,0,0,1,2.589.133v2.99H17.022c-1.393,0-1.665.664-1.665,1.637v2.144H18.69l-.432,3.367h-2.9v8.607h5.65A1.236,1.236,0,0,0,22.244,21V1.236A1.236,1.236,0,0,0,21.007,0Z" fill="#4267b2"/>
    <path id="パス_15" data-name="パス 15" d="M15.357,22.242v-8.6h2.9l.432-3.367H15.357V8.131c0-.973.272-1.637,1.665-1.637h1.767V3.488A23.928,23.928,0,0,0,16.2,3.355a4.051,4.051,0,0,0-4.325,4.439v2.474H8.993v3.367h2.89v8.607Z" fill="#fff"/>
  </g>
</svg>
